# xmcd CD database file
#
# Track frame offsets:
#	150
#	25725
#	49417
#	75987
#	93992
#	118272
#	146007
#
# Disc length: 2339 seconds
#
# Revision: 0
# Processed by: cddbd v1.5PL3 Copyright (c) Steve Scherf et al.
# Submitted via: CDex 1.50
#
DISCID=56092107
DTITLE=Lou Donaldson - Sunny Side Up
DYEAR=1900
DGENRE=Jazz
TTITLE0=BluesFor J.P.
TTITLE1=The Man I Love
TTITLE2=Politely
TTITLE3=It's You Or No One
TTITLE4=The Truth
TTITLE5=Goose Grease
TTITLE6=Softly As in A Morning Sunrise
EXTD=
EXTT0=
EXTT1=
EXTT2=
EXTT3=
EXTT4=
EXTT5=
EXTT6=
PLAYORDER=
